<svg xmlns="http://www.w3.org/2000/svg" width="48" height="48" fill="none"><path fill="#040415" fill-rule="evenodd" d="M28.532 5.46A4.984 4.984 0 0 0 25 4h-2a4.984 4.984 0 0 0-3.635 1.567 4.982 4.982 0 0 0-1.36 3.215l-.002.042A5.138 5.138 0 0 0 18 9v.029a.201.201 0 0 1-.344.142l-.02-.02a5.046 5.046 0 0 0-.127-.122L17.48 9a4.982 4.982 0 0 0-3.384-1.314 4.984 4.984 0 0 0-3.53 1.465l-1.414 1.414a4.984 4.984 0 0 0-1.463 3.679A4.982 4.982 0 0 0 9 17.479l.029.03c.04.043.08.085.122.127l.02.02a.201.201 0 0 1-.142.344H9c-.059 0-.117.001-.176.003l-.042.002a4.982 4.982 0 0 0-3.321 1.463A4.984 4.984 0 0 0 4 23v2a4.984 4.984 0 0 0 1.567 3.635 4.983 4.983 0 0 0 3.215 1.36l.042.002c.059.002.117.003.176.003h.029a.201.201 0 0 1 .142.344l-.02.02a5.22 5.22 0 0 0-.122.126L9 30.521a4.981 4.981 0 0 0-1.314 3.384 4.984 4.984 0 0 0 1.465 3.53l1.414 1.414a4.983 4.983 0 0 0 3.679 1.463A4.98 4.98 0 0 0 17.479 39l.03-.029c.043-.04.085-.08.127-.122l.02-.02a.201.201 0 0 1 .344.142V39c0 .059.001.118.003.176l.002.042a4.981 4.981 0 0 0 1.463 3.321A4.985 4.985 0 0 0 23 44h2a4.985 4.985 0 0 0 3.635-1.567 4.983 4.983 0 0 0 1.36-3.215l.002-.042c.002-.058.003-.117.003-.176v-.029a.201.201 0 0 1 .344-.142l.02.02c.042.042.084.083.126.122l.031.029a4.98 4.98 0 0 0 3.384 1.314 4.984 4.984 0 0 0 3.53-1.465l1.414-1.414a4.985 4.985 0 0 0 1.463-3.679A4.98 4.98 0 0 0 39 30.521l-.029-.03a5.18 5.18 0 0 0-.122-.127l-.02-.02a.201.201 0 0 1 .142-.344H39c.059 0 .118-.001.176-.003l.042-.002a4.983 4.983 0 0 0 3.321-1.463A4.984 4.984 0 0 0 44 25v-2a4.984 4.984 0 0 0-1.567-3.635 4.981 4.981 0 0 0-3.215-1.36l-.042-.002A5.127 5.127 0 0 0 39 18h-.029a.201.201 0 0 1-.142-.344l.02-.02c.042-.042.083-.084.122-.127l.029-.03a4.98 4.98 0 0 0 1.314-3.384 4.984 4.984 0 0 0-1.465-3.53l-1.414-1.414a4.984 4.984 0 0 0-3.679-1.463A4.981 4.981 0 0 0 30.521 9l-.03.029a5.22 5.22 0 0 0-.127.122l-.02.02A.201.201 0 0 1 30 9.029V9c0-.059-.001-.118-.003-.176l-.002-.042a4.983 4.983 0 0 0-1.463-3.321ZM23 40a1 1 0 0 1-1-1v-.029a4.201 4.201 0 0 0-7.172-2.97l-.02.02a1 1 0 0 1-1.415 0l-1.414-1.414a1 1 0 0 1 0-1.415l.02-.02A4.201 4.201 0 0 0 9.03 26H9a1 1 0 0 1-1-1v-2a1 1 0 0 1 1-1h.029a4.201 4.201 0 0 0 2.97-7.172l-.02-.02a1 1 0 0 1 0-1.415l1.414-1.414a1 1 0 0 1 1.415 0l.02.02A4.201 4.201 0 0 0 22 9.03V9a1 1 0 0 1 1-1h2a1 1 0 0 1 1 1v.029a4.201 4.201 0 0 0 7.172 2.97l.02-.02a1 1 0 0 1 1.415 0l1.414 1.414a1 1 0 0 1 0 1.415l-.02.02A4.201 4.201 0 0 0 38.97 22H39a1 1 0 0 1 1 1v2a1 1 0 0 1-1 1h-.029a4.201 4.201 0 0 0-2.97 7.172l.02.02a1 1 0 0 1 0 1.415l-1.414 1.414a1 1 0 0 1-1.415 0l-.02-.02A4.201 4.201 0 0 0 26 38.97V39a1 1 0 0 1-1 1h-2Zm5-16a4 4 0 1 1-8 0 4 4 0 0 1 8 0Zm4 0a8 8 0 1 1-16 0 8 8 0 0 1 16 0Z" clip-rule="evenodd"/></svg>